<svg width="18" height="19" viewBox="0 0 18 19" fill="none" xmlns="http://www.w3.org/2000/svg">
<path d="M0 17.765V7.03068C0 6.71453 0.0737142 6.41525 0.221143 6.13286C0.368571 5.85046 0.571714 5.61787 0.830571 5.4351L7.75414 0.398896C8.11671 0.132966 8.53071 0 8.99614 0C9.46157 0 9.87814 0.132966 10.2459 0.398896L17.1694 5.43387C17.4291 5.61664 17.6323 5.84964 17.7789 6.13286C17.9263 6.41525 18 6.71453 18 7.03068V17.765C18 18.096 17.8719 18.3846 17.6156 18.6307C17.3593 18.8769 17.0589 19 16.7143 19H12.3634C12.0686 19 11.8217 18.9045 11.6229 18.7135C11.424 18.5217 11.3246 18.2845 11.3246 18.0021V12.1126C11.3246 11.8302 11.2251 11.5935 11.0263 11.4025C10.8266 11.2106 10.5797 11.1147 10.2857 11.1147H7.71429C7.42029 11.1147 7.17386 11.2106 6.975 11.4025C6.77529 11.5935 6.67543 11.8302 6.67543 12.1126V18.0034C6.67543 18.2858 6.576 18.5225 6.37714 18.7135C6.17829 18.9045 5.93186 19 5.63786 19H1.28571C0.941143 19 0.640714 18.8769 0.384428 18.6307C0.128143 18.3846 0 18.096 0 17.765Z" fill="#FF7B22"/>
</svg>
