<svg width="42" height="40" viewBox="0 0 42 40" fill="none" xmlns="http://www.w3.org/2000/svg">
<path d="M21.2034 15.3227H29.4706C28.5153 9.46858 23.4377 5 17.3172 5C10.5153 5 5 10.5153 5 17.3172C5 24.119 10.5153 29.6343 17.3172 29.6343V19.2127C17.3172 17.0659 19.0566 15.3265 21.2034 15.3265V15.3227Z" fill="#F68A1E"/>
<path d="M32.8526 15.3228H29.465C29.5716 15.9736 29.6287 16.6359 29.6287 17.3172C29.6287 24.1191 24.1134 29.6344 17.3115 29.6344V30.8638C17.3115 33.0106 19.051 34.7501 21.1977 34.7501H32.8526C34.9993 34.7501 36.7388 33.0106 36.7388 30.8638V19.209C36.7388 17.0622 34.9993 15.3228 32.8526 15.3228Z" fill="#FEC00E"/>
<path d="M29.6287 17.3172C29.6287 16.6397 29.5716 15.9736 29.465 15.3228H21.1977C19.051 15.3228 17.3115 17.0622 17.3115 19.209V29.6306C24.1134 29.6306 29.6287 24.1153 29.6287 17.3134V17.3172Z" fill="#F04E22"/>
</svg>
